STARTFONT 2.1
FONT -FontForge-Everyday_Ample_Blocky-Book-R-Normal--9-90-75-75-P-63-ISO10646-1
SIZE 9 75 75
FONTBOUNDINGBOX 10 15 0 -2
COMMENT "Generated by fontforge, http://fontforge.sourceforge.net"
STARTPROPERTIES 38
FOUNDRY "FontForge"
FAMILY_NAME "Everyday_Ample_Blocky"
WEIGHT_NAME "Book"
SLANT "R"
SETWIDTH_NAME "Normal"
ADD_STYLE_NAME ""
PIXEL_SIZE 9
POINT_SIZE 90
RESOLUTION_X 75
RESOLUTION_Y 75
SPACING "P"
AVERAGE_WIDTH 63
CHARSET_REGISTRY "ISO10646"
CHARSET_ENCODING "1"
FONTNAME_REGISTRY ""
CHARSET_COLLECTIONS "ISO10646-1"
FONT_NAME "Everyday_Ample_Blocky"
FACE_NAME "Everyday_Ample_Blocky Regular"
FONT_VERSION "1.0"
FONT_ASCENT 7
FONT_DESCENT 2
UNDERLINE_POSITION 1
UNDERLINE_THICKNESS 1
X_HEIGHT 6
CAP_HEIGHT 8
RAW_ASCENT 799
RAW_DESCENT 200
NORM_SPACE 7
RELATIVE_WEIGHT 40
RELATIVE_SETWIDTH 50
SUPERSCRIPT_X 0
SUPERSCRIPT_Y 4
SUPERSCRIPT_SIZE 4
SUBSCRIPT_X 0
SUBSCRIPT_Y -1
SUBSCRIPT_SIZE 4
AVG_LOWERCASE_WIDTH 59
AVG_UPPERCASE_WIDTH 72
ENDPROPERTIES
CHARS 165
STARTCHAR uni000D
ENCODING 13
SWIDTH 111 0
DWIDTH 1 0
BBX 1 1 0 0
BITMAP
00
ENDCHAR
STARTCHAR space
ENCODING 32
SWIDTH 777 0
DWIDTH 7 0
BBX 1 1 0 0
BITMAP
00
ENDCHAR
STARTCHAR exclam
ENCODING 33
SWIDTH 222 0
DWIDTH 2 0
BBX 1 9 0 0
BITMAP
80
80
80
80
80
80
80
00
80
ENDCHAR
STARTCHAR quotedbl
ENCODING 34
SWIDTH 444 0
DWIDTH 4 0
BBX 3 2 0 7
BITMAP
A0
A0
ENDCHAR
STARTCHAR numbersign
ENCODING 35
SWIDTH 888 0
DWIDTH 8 0
BBX 7 7 0 0
BITMAP
44
FE
44
44
44
FE
44
ENDCHAR
STARTCHAR dollar
ENCODING 36
SWIDTH 666 0
DWIDTH 6 0
BBX 5 11 0 -1
BITMAP
20
F8
A8
A0
A0
F8
28
28
A8
F8
20
ENDCHAR
STARTCHAR percent
ENCODING 37
SWIDTH 1111 0
DWIDTH 10 0
BBX 9 9 0 0
BITMAP
6080
A100
C200
0400
0800
1000
2180
4280
8300
ENDCHAR
STARTCHAR ampersand
ENCODING 38
SWIDTH 888 0
DWIDTH 8 0
BBX 7 9 0 0
BITMAP
F0
90
90
60
92
8A
84
84
F8
ENDCHAR
STARTCHAR quotesingle
ENCODING 39
SWIDTH 222 0
DWIDTH 2 0
BBX 1 2 0 7
BITMAP
80
80
ENDCHAR
STARTCHAR parenleft
ENCODING 40
SWIDTH 555 0
DWIDTH 5 0
BBX 4 13 0 -2
BITMAP
70
80
80
80
80
80
80
80
80
80
80
40
30
ENDCHAR
STARTCHAR parenright
ENCODING 41
SWIDTH 555 0
DWIDTH 5 0
BBX 4 13 0 -2
BITMAP
C0
20
10
10
10
10
10
10
10
10
10
10
E0
ENDCHAR
STARTCHAR asterisk
ENCODING 42
SWIDTH 888 0
DWIDTH 8 0
BBX 7 7 0 1
BITMAP
10
92
54
38
54
92
10
ENDCHAR
STARTCHAR plus
ENCODING 43
SWIDTH 888 0
DWIDTH 8 0
BBX 7 7 0 1
BITMAP
10
10
10
FE
10
10
10
ENDCHAR
STARTCHAR comma
ENCODING 44
SWIDTH 333 0
DWIDTH 3 0
BBX 2 3 0 -2
BITMAP
40
40
C0
ENDCHAR
STARTCHAR hyphen
ENCODING 45
SWIDTH 777 0
DWIDTH 7 0
BBX 6 1 0 4
BITMAP
FC
ENDCHAR
STARTCHAR period
ENCODING 46
SWIDTH 222 0
DWIDTH 2 0
BBX 1 1 0 0
BITMAP
80
ENDCHAR
STARTCHAR slash
ENCODING 47
SWIDTH 444 0
DWIDTH 4 0
BBX 3 9 0 0
BITMAP
20
20
20
40
40
40
80
80
80
ENDCHAR
STARTCHAR zero
ENCODING 48
SWIDTH 777 0
DWIDTH 7 0
BBX 6 9 0 0
BITMAP
FC
84
84
84
B4
84
84
84
FC
ENDCHAR
STARTCHAR one
ENCODING 49
SWIDTH 666 0
DWIDTH 6 0
BBX 5 9 0 0
BITMAP
20
E0
20
20
20
20
20
20
F8
ENDCHAR
STARTCHAR two
ENCODING 50
SWIDTH 777 0
DWIDTH 7 0
BBX 6 9 0 0
BITMAP
F8
84
04
04
FC
80
80
84
FC
ENDCHAR
STARTCHAR three
ENCODING 51
SWIDTH 777 0
DWIDTH 7 0
BBX 6 9 0 0
BITMAP
FC
84
04
04
7C
04
04
84
FC
ENDCHAR
STARTCHAR four
ENCODING 52
SWIDTH 777 0
DWIDTH 7 0
BBX 6 9 0 0
BITMAP
84
84
84
84
FC
04
04
04
04
ENDCHAR
STARTCHAR five
ENCODING 53
SWIDTH 777 0
DWIDTH 7 0
BBX 6 9 0 0
BITMAP
FC
84
80
80
FC
04
04
84
F8
ENDCHAR
STARTCHAR six
ENCODING 54
SWIDTH 777 0
DWIDTH 7 0
BBX 6 9 0 0
BITMAP
FC
84
80
FC
84
84
84
84
FC
ENDCHAR
STARTCHAR seven
ENCODING 55
SWIDTH 777 0
DWIDTH 7 0
BBX 6 9 0 0
BITMAP
FC
84
04
08
08
10
10
20
20
ENDCHAR
STARTCHAR eight
ENCODING 56
SWIDTH 777 0
DWIDTH 7 0
BBX 6 9 0 0
BITMAP
FC
84
84
84
FC
84
84
84
FC
ENDCHAR
STARTCHAR nine
ENCODING 57
SWIDTH 777 0
DWIDTH 7 0
BBX 6 9 0 0
BITMAP
FC
84
84
84
84
FC
04
84
FC
ENDCHAR
STARTCHAR colon
ENCODING 58
SWIDTH 222 0
DWIDTH 2 0
BBX 1 7 0 0
BITMAP
80
00
00
00
00
00
80
ENDCHAR
STARTCHAR semicolon
ENCODING 59
SWIDTH 333 0
DWIDTH 3 0
BBX 2 9 0 -2
BITMAP
40
00
00
00
00
00
40
40
C0
ENDCHAR
STARTCHAR less
ENCODING 60
SWIDTH 888 0
DWIDTH 8 0
BBX 7 7 0 1
BITMAP
06
08
10
20
40
80
FE
ENDCHAR
STARTCHAR equal
ENCODING 61
SWIDTH 777 0
DWIDTH 7 0
BBX 6 5 0 2
BITMAP
FC
00
00
00
FC
ENDCHAR
STARTCHAR greater
ENCODING 62
SWIDTH 888 0
DWIDTH 8 0
BBX 7 7 0 1
BITMAP
FE
02
04
08
10
20
C0
ENDCHAR
STARTCHAR question
ENCODING 63
SWIDTH 777 0
DWIDTH 7 0
BBX 6 8 0 0
BITMAP
FC
84
04
04
3C
20
00
20
ENDCHAR
STARTCHAR at
ENCODING 64
SWIDTH 1000 0
DWIDTH 9 0
BBX 8 9 0 0
BITMAP
FF
81
BD
A5
A5
A5
BF
80
FC
ENDCHAR
STARTCHAR A
ENCODING 65
SWIDTH 777 0
DWIDTH 7 0
BBX 6 9 0 0
BITMAP
3C
44
84
84
84
FC
84
84
84
ENDCHAR
STARTCHAR B
ENCODING 66
SWIDTH 888 0
DWIDTH 8 0
BBX 7 9 0 0
BITMAP
F8
84
84
84
FC
82
82
82
FE
ENDCHAR
STARTCHAR C
ENCODING 67
SWIDTH 888 0
DWIDTH 8 0
BBX 7 9 0 0
BITMAP
7C
84
80
80
80
80
80
82
FE
ENDCHAR
STARTCHAR D
ENCODING 68
SWIDTH 777 0
DWIDTH 7 0
BBX 6 9 0 0
BITMAP
F0
88
84
84
84
84
84
84
F8
ENDCHAR
STARTCHAR E
ENCODING 69
SWIDTH 777 0
DWIDTH 7 0
BBX 6 9 0 0
BITMAP
FC
80
80
80
F0
80
80
80
FC
ENDCHAR
STARTCHAR F
ENCODING 70
SWIDTH 777 0
DWIDTH 7 0
BBX 6 9 0 0
BITMAP
FC
80
80
80
F0
80
80
80
80
ENDCHAR
STARTCHAR G
ENCODING 71
SWIDTH 888 0
DWIDTH 8 0
BBX 7 9 0 0
BITMAP
7C
84
80
80
9E
82
82
82
FC
ENDCHAR
STARTCHAR H
ENCODING 72
SWIDTH 777 0
DWIDTH 7 0
BBX 6 9 0 0
BITMAP
84
84
84
84
FC
84
84
84
84
ENDCHAR
STARTCHAR I
ENCODING 73
SWIDTH 444 0
DWIDTH 4 0
BBX 3 9 0 0
BITMAP
E0
40
40
40
40
40
40
40
E0
ENDCHAR
STARTCHAR J
ENCODING 74
SWIDTH 777 0
DWIDTH 7 0
BBX 6 9 0 0
BITMAP
3C
04
04
04
04
04
04
84
F8
ENDCHAR
STARTCHAR K
ENCODING 75
SWIDTH 777 0
DWIDTH 7 0
BBX 6 9 0 0
BITMAP
84
84
84
88
F0
88
84
84
84
ENDCHAR
STARTCHAR L
ENCODING 76
SWIDTH 777 0
DWIDTH 7 0
BBX 6 9 0 0
BITMAP
80
80
80
80
80
80
80
80
FC
ENDCHAR
STARTCHAR M
ENCODING 77
SWIDTH 1111 0
DWIDTH 10 0
BBX 9 9 0 0
BITMAP
7700
8880
8880
8880
8880
8880
8880
8880
8080
ENDCHAR
STARTCHAR N
ENCODING 78
SWIDTH 777 0
DWIDTH 7 0
BBX 6 9 0 0
BITMAP
F8
84
84
84
84
84
84
84
84
ENDCHAR
STARTCHAR O
ENCODING 79
SWIDTH 888 0
DWIDTH 8 0
BBX 7 9 0 0
BITMAP
7E
82
82
82
82
82
82
82
FC
ENDCHAR
STARTCHAR P
ENCODING 80
SWIDTH 777 0
DWIDTH 7 0
BBX 6 9 0 0
BITMAP
F8
84
84
84
84
F8
80
80
80
ENDCHAR
STARTCHAR Q
ENCODING 81
SWIDTH 888 0
DWIDTH 8 0
BBX 7 9 0 0
BITMAP
7E
82
82
82
82
82
8A
84
FA
ENDCHAR
STARTCHAR R
ENCODING 82
SWIDTH 777 0
DWIDTH 7 0
BBX 6 9 0 0
BITMAP
F8
84
84
84
84
F8
84
84
84
ENDCHAR
STARTCHAR S
ENCODING 83
SWIDTH 777 0
DWIDTH 7 0
BBX 6 9 0 0
BITMAP
7C
84
80
80
FC
04
04
84
F8
ENDCHAR
STARTCHAR T
ENCODING 84
SWIDTH 888 0
DWIDTH 8 0
BBX 7 9 0 0
BITMAP
FE
10
10
10
10
10
10
10
10
ENDCHAR
STARTCHAR U
ENCODING 85
SWIDTH 777 0
DWIDTH 7 0
BBX 6 9 0 0
BITMAP
84
84
84
84
84
84
84
84
7C
ENDCHAR
STARTCHAR V
ENCODING 86
SWIDTH 888 0
DWIDTH 8 0
BBX 7 9 0 0
BITMAP
82
82
82
82
84
88
90
A0
C0
ENDCHAR
STARTCHAR W
ENCODING 87
SWIDTH 1111 0
DWIDTH 10 0
BBX 9 9 0 0
BITMAP
8080
8880
8880
8880
8880
8880
8880
8880
7700
ENDCHAR
STARTCHAR X
ENCODING 88
SWIDTH 777 0
DWIDTH 7 0
BBX 6 9 0 0
BITMAP
84
84
84
48
30
48
84
84
84
ENDCHAR
STARTCHAR Y
ENCODING 89
SWIDTH 888 0
DWIDTH 8 0
BBX 7 9 0 0
BITMAP
82
82
82
44
28
10
10
10
10
ENDCHAR
STARTCHAR Z
ENCODING 90
SWIDTH 777 0
DWIDTH 7 0
BBX 6 9 0 0
BITMAP
FC
84
04
04
78
80
80
84
FC
ENDCHAR
STARTCHAR bracketleft
ENCODING 91
SWIDTH 444 0
DWIDTH 4 0
BBX 3 13 0 -2
BITMAP
E0
80
80
80
80
80
80
80
80
80
80
80
E0
ENDCHAR
STARTCHAR backslash
ENCODING 92
SWIDTH 444 0
DWIDTH 4 0
BBX 3 9 0 0
BITMAP
80
80
80
40
40
40
20
20
20
ENDCHAR
STARTCHAR bracketright
ENCODING 93
SWIDTH 444 0
DWIDTH 4 0
BBX 3 13 0 -2
BITMAP
E0
20
20
20
20
20
20
20
20
20
20
20
E0
ENDCHAR
STARTCHAR asciicircum
ENCODING 94
SWIDTH 666 0
DWIDTH 6 0
BBX 5 3 0 6
BITMAP
38
48
88
ENDCHAR
STARTCHAR underscore
ENCODING 95
SWIDTH 1222 0
DWIDTH 11 0
BBX 10 1 0 -1
BITMAP
FFC0
ENDCHAR
STARTCHAR grave
ENCODING 96
SWIDTH 333 0
DWIDTH 3 0
BBX 2 3 0 6
BITMAP
80
80
C0
ENDCHAR
STARTCHAR a
ENCODING 97
SWIDTH 666 0
DWIDTH 6 0
BBX 5 7 0 0
BITMAP
78
08
F8
88
88
88
F8
ENDCHAR
STARTCHAR b
ENCODING 98
SWIDTH 666 0
DWIDTH 6 0
BBX 5 9 0 0
BITMAP
80
80
F8
88
88
88
88
88
F8
ENDCHAR
STARTCHAR c
ENCODING 99
SWIDTH 666 0
DWIDTH 6 0
BBX 5 7 0 0
BITMAP
F0
80
80
80
80
88
F8
ENDCHAR
STARTCHAR d
ENCODING 100
SWIDTH 666 0
DWIDTH 6 0
BBX 5 9 0 0
BITMAP
08
08
F8
88
88
88
88
88
F8
ENDCHAR
STARTCHAR e
ENCODING 101
SWIDTH 666 0
DWIDTH 6 0
BBX 5 7 0 0
BITMAP
F8
88
88
F8
80
88
F8
ENDCHAR
STARTCHAR f
ENCODING 102
SWIDTH 555 0
DWIDTH 5 0
BBX 4 9 0 0
BITMAP
F0
90
80
80
E0
80
80
80
80
ENDCHAR
STARTCHAR g
ENCODING 103
SWIDTH 666 0
DWIDTH 6 0
BBX 5 9 0 -2
BITMAP
F8
88
88
88
88
88
F8
08
78
ENDCHAR
STARTCHAR h
ENCODING 104
SWIDTH 666 0
DWIDTH 6 0
BBX 5 9 0 0
BITMAP
80
80
F8
88
88
88
88
88
88
ENDCHAR
STARTCHAR i
ENCODING 105
SWIDTH 222 0
DWIDTH 2 0
BBX 1 9 0 0
BITMAP
80
00
80
80
80
80
80
80
80
ENDCHAR
STARTCHAR j
ENCODING 106
SWIDTH 555 0
DWIDTH 5 0
BBX 4 11 0 -2
BITMAP
10
00
10
10
10
10
10
10
10
90
F0
ENDCHAR
STARTCHAR k
ENCODING 107
SWIDTH 666 0
DWIDTH 6 0
BBX 5 9 0 0
BITMAP
80
80
88
88
F0
88
88
88
88
ENDCHAR
STARTCHAR l
ENCODING 108
SWIDTH 444 0
DWIDTH 4 0
BBX 3 9 0 0
BITMAP
80
80
80
80
80
80
80
80
E0
ENDCHAR
STARTCHAR m
ENCODING 109
SWIDTH 1111 0
DWIDTH 10 0
BBX 9 7 0 0
BITMAP
F780
8880
8880
8880
8880
8880
8080
ENDCHAR
STARTCHAR n
ENCODING 110
SWIDTH 666 0
DWIDTH 6 0
BBX 5 7 0 0
BITMAP
F8
88
88
88
88
88
88
ENDCHAR
STARTCHAR o
ENCODING 111
SWIDTH 666 0
DWIDTH 6 0
BBX 5 7 0 0
BITMAP
F8
88
88
88
88
88
F8
ENDCHAR
STARTCHAR p
ENCODING 112
SWIDTH 666 0
DWIDTH 6 0
BBX 5 9 0 -2
BITMAP
F8
88
88
88
88
88
F8
80
80
ENDCHAR
STARTCHAR q
ENCODING 113
SWIDTH 666 0
DWIDTH 6 0
BBX 5 9 0 -2
BITMAP
F8
88
88
88
88
88
F8
08
08
ENDCHAR
STARTCHAR r
ENCODING 114
SWIDTH 666 0
DWIDTH 6 0
BBX 5 7 0 0
BITMAP
F8
88
80
80
80
80
80
ENDCHAR
STARTCHAR s
ENCODING 115
SWIDTH 666 0
DWIDTH 6 0
BBX 5 7 0 0
BITMAP
F8
88
80
F8
08
88
F8
ENDCHAR
STARTCHAR t
ENCODING 116
SWIDTH 555 0
DWIDTH 5 0
BBX 4 9 0 0
BITMAP
80
80
E0
80
80
80
80
90
F0
ENDCHAR
STARTCHAR u
ENCODING 117
SWIDTH 666 0
DWIDTH 6 0
BBX 5 7 0 0
BITMAP
88
88
88
88
88
88
F8
ENDCHAR
STARTCHAR v
ENCODING 118
SWIDTH 666 0
DWIDTH 6 0
BBX 5 7 0 0
BITMAP
88
88
88
88
90
A0
C0
ENDCHAR
STARTCHAR w
ENCODING 119
SWIDTH 1111 0
DWIDTH 10 0
BBX 9 7 0 0
BITMAP
8080
8880
8880
8880
8880
8880
F780
ENDCHAR
STARTCHAR x
ENCODING 120
SWIDTH 666 0
DWIDTH 6 0
BBX 5 7 0 0
BITMAP
88
88
88
70
88
88
88
ENDCHAR
STARTCHAR y
ENCODING 121
SWIDTH 666 0
DWIDTH 6 0
BBX 5 9 0 -2
BITMAP
88
88
88
88
88
88
F8
08
78
ENDCHAR
STARTCHAR z
ENCODING 122
SWIDTH 666 0
DWIDTH 6 0
BBX 5 7 0 0
BITMAP
F8
88
08
F8
80
88
F8
ENDCHAR
STARTCHAR braceleft
ENCODING 123
SWIDTH 555 0
DWIDTH 5 0
BBX 4 13 0 -2
BITMAP
70
40
40
40
40
40
80
40
40
40
40
40
70
ENDCHAR
STARTCHAR bar
ENCODING 124
SWIDTH 222 0
DWIDTH 2 0
BBX 1 11 0 -2
BITMAP
80
80
80
80
80
80
80
80
80
80
80
ENDCHAR
STARTCHAR braceright
ENCODING 125
SWIDTH 555 0
DWIDTH 5 0
BBX 4 13 0 -2
BITMAP
E0
20
20
20
20
20
10
20
20
20
20
20
E0
ENDCHAR
STARTCHAR asciitilde
ENCODING 126
SWIDTH 888 0
DWIDTH 8 0
BBX 7 3 0 6
BITMAP
E2
92
8E
ENDCHAR
STARTCHAR exclamdown
ENCODING 161
SWIDTH 222 0
DWIDTH 2 0
BBX 1 9 0 0
BITMAP
80
00
80
80
80
80
80
80
80
ENDCHAR
STARTCHAR questiondown
ENCODING 191
SWIDTH 777 0
DWIDTH 7 0
BBX 6 8 0 0
BITMAP
10
00
10
F0
80
80
84
FC
ENDCHAR
STARTCHAR Agrave
ENCODING 192
SWIDTH 777 0
DWIDTH 7 0
BBX 6 13 0 0
BITMAP
10
10
18
00
3C
44
84
84
84
FC
84
84
84
ENDCHAR
STARTCHAR Aacute
ENCODING 193
SWIDTH 777 0
DWIDTH 7 0
BBX 6 13 0 0
BITMAP
10
10
30
00
3C
44
84
84
84
FC
84
84
84
ENDCHAR
STARTCHAR Acircumflex
ENCODING 194
SWIDTH 777 0
DWIDTH 7 0
BBX 6 12 0 0
BITMAP
18
28
00
3C
44
84
84
84
FC
84
84
84
ENDCHAR
STARTCHAR Atilde
ENCODING 195
SWIDTH 777 0
DWIDTH 7 0
BBX 6 12 0 0
BITMAP
34
2C
00
3C
44
84
84
84
FC
84
84
84
ENDCHAR
STARTCHAR Adieresis
ENCODING 196
SWIDTH 777 0
DWIDTH 7 0
BBX 6 11 0 0
BITMAP
84
00
3C
44
84
84
84
FC
84
84
84
ENDCHAR
STARTCHAR Aring
ENCODING 197
SWIDTH 777 0
DWIDTH 7 0
BBX 6 12 0 0
BITMAP
18
28
30
3C
44
84
84
84
FC
84
84
84
ENDCHAR
STARTCHAR AE
ENCODING 198
SWIDTH 1222 0
DWIDTH 11 0
BBX 10 9 0 0
BITMAP
3FC0
4800
8800
8800
8F00
F800
8800
8800
8FC0
ENDCHAR
STARTCHAR Ccedilla
ENCODING 199
SWIDTH 888 0
DWIDTH 8 0
BBX 7 11 0 -2
BITMAP
7C
84
80
80
80
80
80
82
FE
10
30
ENDCHAR
STARTCHAR Egrave
ENCODING 200
SWIDTH 777 0
DWIDTH 7 0
BBX 6 13 0 0
BITMAP
10
10
18
00
FC
80
80
80
F0
80
80
80
FC
ENDCHAR
STARTCHAR Eacute
ENCODING 201
SWIDTH 777 0
DWIDTH 7 0
BBX 6 13 0 0
BITMAP
10
10
30
00
FC
80
80
80
F0
80
80
80
FC
ENDCHAR
STARTCHAR Ecircumflex
ENCODING 202
SWIDTH 777 0
DWIDTH 7 0
BBX 6 12 0 0
BITMAP
18
28
00
FC
80
80
80
F0
80
80
80
FC
ENDCHAR
STARTCHAR Edieresis
ENCODING 203
SWIDTH 777 0
DWIDTH 7 0
BBX 6 11 0 0
BITMAP
84
00
FC
80
80
80
F0
80
80
80
FC
ENDCHAR
STARTCHAR Igrave
ENCODING 204
SWIDTH 444 0
DWIDTH 4 0
BBX 3 13 0 0
BITMAP
40
40
60
00
E0
40
40
40
40
40
40
40
E0
ENDCHAR
STARTCHAR Iacute
ENCODING 205
SWIDTH 444 0
DWIDTH 4 0
BBX 3 13 0 0
BITMAP
40
40
C0
00
E0
40
40
40
40
40
40
40
E0
ENDCHAR
STARTCHAR Icircumflex
ENCODING 206
SWIDTH 444 0
DWIDTH 4 0
BBX 3 12 0 0
BITMAP
60
A0
00
E0
40
40
40
40
40
40
40
E0
ENDCHAR
STARTCHAR Idieresis
ENCODING 207
SWIDTH 444 0
DWIDTH 4 0
BBX 3 11 0 0
BITMAP
A0
00
E0
40
40
40
40
40
40
40
E0
ENDCHAR
STARTCHAR Eth
ENCODING 208
SWIDTH 888 0
DWIDTH 8 0
BBX 7 9 0 0
BITMAP
78
44
42
42
FA
42
42
42
7C
ENDCHAR
STARTCHAR Ntilde
ENCODING 209
SWIDTH 777 0
DWIDTH 7 0
BBX 6 12 0 0
BITMAP
68
58
00
F8
84
84
84
84
84
84
84
84
ENDCHAR
STARTCHAR Ograve
ENCODING 210
SWIDTH 888 0
DWIDTH 8 0
BBX 7 13 0 0
BITMAP
10
10
18
00
7E
82
82
82
82
82
82
82
FC
ENDCHAR
STARTCHAR Oacute
ENCODING 211
SWIDTH 888 0
DWIDTH 8 0
BBX 7 13 0 0
BITMAP
10
10
30
00
7E
82
82
82
82
82
82
82
FC
ENDCHAR
STARTCHAR Ocircumflex
ENCODING 212
SWIDTH 888 0
DWIDTH 8 0
BBX 7 12 0 0
BITMAP
18
28
00
7E
82
82
82
82
82
82
82
FC
ENDCHAR
STARTCHAR Otilde
ENCODING 213
SWIDTH 888 0
DWIDTH 8 0
BBX 7 12 0 0
BITMAP
34
2C
00
7E
82
82
82
82
82
82
82
FC
ENDCHAR
STARTCHAR Odieresis
ENCODING 214
SWIDTH 888 0
DWIDTH 8 0
BBX 7 11 0 0
BITMAP
82
00
7E
82
82
82
82
82
82
82
FC
ENDCHAR
STARTCHAR Ugrave
ENCODING 217
SWIDTH 777 0
DWIDTH 7 0
BBX 6 13 0 0
BITMAP
20
20
30
00
84
84
84
84
84
84
84
84
7C
ENDCHAR
STARTCHAR Uacute
ENCODING 218
SWIDTH 777 0
DWIDTH 7 0
BBX 6 13 0 0
BITMAP
10
10
30
00
84
84
84
84
84
84
84
84
7C
ENDCHAR
STARTCHAR Ucircumflex
ENCODING 219
SWIDTH 777 0
DWIDTH 7 0
BBX 6 12 0 0
BITMAP
18
28
00
84
84
84
84
84
84
84
84
7C
ENDCHAR
STARTCHAR Udieresis
ENCODING 220
SWIDTH 777 0
DWIDTH 7 0
BBX 6 11 0 0
BITMAP
84
00
84
84
84
84
84
84
84
84
7C
ENDCHAR
STARTCHAR Yacute
ENCODING 221
SWIDTH 888 0
DWIDTH 8 0
BBX 7 13 0 0
BITMAP
08
08
18
00
82
82
82
44
28
10
10
10
10
ENDCHAR
STARTCHAR Thorn
ENCODING 222
SWIDTH 777 0
DWIDTH 7 0
BBX 6 9 0 0
BITMAP
80
F8
84
84
84
84
84
F8
80
ENDCHAR
STARTCHAR germandbls
ENCODING 223
SWIDTH 777 0
DWIDTH 7 0
BBX 6 9 0 0
BITMAP
78
88
88
B8
84
84
84
84
BC
ENDCHAR
STARTCHAR agrave
ENCODING 224
SWIDTH 666 0
DWIDTH 6 0
BBX 5 11 0 0
BITMAP
20
20
30
00
78
08
F8
88
88
88
F8
ENDCHAR
STARTCHAR aacute
ENCODING 225
SWIDTH 666 0
DWIDTH 6 0
BBX 5 11 0 0
BITMAP
20
20
60
00
78
08
F8
88
88
88
F8
ENDCHAR
STARTCHAR acircumflex
ENCODING 226
SWIDTH 666 0
DWIDTH 6 0
BBX 5 10 0 0
BITMAP
30
50
00
78
08
F8
88
88
88
F8
ENDCHAR
STARTCHAR atilde
ENCODING 227
SWIDTH 666 0
DWIDTH 6 0
BBX 5 10 0 0
BITMAP
68
58
00
78
08
F8
88
88
88
F8
ENDCHAR
STARTCHAR adieresis
ENCODING 228
SWIDTH 666 0
DWIDTH 6 0
BBX 5 9 0 0
BITMAP
88
00
78
08
F8
88
88
88
F8
ENDCHAR
STARTCHAR aring
ENCODING 229
SWIDTH 666 0
DWIDTH 6 0
BBX 5 10 0 0
BITMAP
30
50
60
78
08
F8
88
88
88
F8
ENDCHAR
STARTCHAR ae
ENCODING 230
SWIDTH 1111 0
DWIDTH 10 0
BBX 9 7 0 0
BITMAP
7F80
0880
F880
8F80
8800
8880
FF80
ENDCHAR
STARTCHAR ccedilla
ENCODING 231
SWIDTH 666 0
DWIDTH 6 0
BBX 5 9 0 -2
BITMAP
F0
80
80
80
80
88
F8
20
60
ENDCHAR
STARTCHAR egrave
ENCODING 232
SWIDTH 666 0
DWIDTH 6 0
BBX 5 11 0 0
BITMAP
20
20
30
00
F8
88
88
F8
80
88
F8
ENDCHAR
STARTCHAR eacute
ENCODING 233
SWIDTH 666 0
DWIDTH 6 0
BBX 5 11 0 0
BITMAP
10
10
30
00
F8
88
88
F8
80
88
F8
ENDCHAR
STARTCHAR ecircumflex
ENCODING 234
SWIDTH 666 0
DWIDTH 6 0
BBX 5 10 0 0
BITMAP
30
50
00
F8
88
88
F8
80
88
F8
ENDCHAR
STARTCHAR edieresis
ENCODING 235
SWIDTH 666 0
DWIDTH 6 0
BBX 5 9 0 0
BITMAP
88
00
F8
88
88
F8
80
88
F8
ENDCHAR
STARTCHAR igrave
ENCODING 236
SWIDTH 333 0
DWIDTH 3 0
BBX 2 11 0 0
BITMAP
80
80
C0
00
80
80
80
80
80
80
80
ENDCHAR
STARTCHAR iacute
ENCODING 237
SWIDTH 333 0
DWIDTH 3 0
BBX 2 11 0 0
BITMAP
40
40
C0
00
40
40
40
40
40
40
40
ENDCHAR
STARTCHAR icircumflex
ENCODING 238
SWIDTH 444 0
DWIDTH 4 0
BBX 3 10 0 0
BITMAP
60
A0
00
40
40
40
40
40
40
40
ENDCHAR
STARTCHAR idieresis
ENCODING 239
SWIDTH 444 0
DWIDTH 4 0
BBX 3 9 0 0
BITMAP
A0
00
40
40
40
40
40
40
40
ENDCHAR
STARTCHAR eth
ENCODING 240
SWIDTH 777 0
DWIDTH 7 0
BBX 6 9 0 0
BITMAP
18
0C
F8
88
88
88
88
88
F8
ENDCHAR
STARTCHAR ntilde
ENCODING 241
SWIDTH 666 0
DWIDTH 6 0
BBX 5 10 0 0
BITMAP
68
58
00
F8
88
88
88
88
88
88
ENDCHAR
STARTCHAR ograve
ENCODING 242
SWIDTH 666 0
DWIDTH 6 0
BBX 5 11 0 0
BITMAP
20
20
30
00
F8
88
88
88
88
88
F8
ENDCHAR
STARTCHAR oacute
ENCODING 243
SWIDTH 666 0
DWIDTH 6 0
BBX 5 11 0 0
BITMAP
10
10
30
00
F8
88
88
88
88
88
F8
ENDCHAR
STARTCHAR ocircumflex
ENCODING 244
SWIDTH 666 0
DWIDTH 6 0
BBX 5 10 0 0
BITMAP
30
50
00
F8
88
88
88
88
88
F8
ENDCHAR
STARTCHAR otilde
ENCODING 245
SWIDTH 666 0
DWIDTH 6 0
BBX 5 10 0 0
BITMAP
68
58
00
F8
88
88
88
88
88
F8
ENDCHAR
STARTCHAR odieresis
ENCODING 246
SWIDTH 666 0
DWIDTH 6 0
BBX 5 9 0 0
BITMAP
88
00
F8
88
88
88
88
88
F8
ENDCHAR
STARTCHAR ugrave
ENCODING 249
SWIDTH 666 0
DWIDTH 6 0
BBX 5 11 0 0
BITMAP
20
20
30
00
88
88
88
88
88
88
F8
ENDCHAR
STARTCHAR uacute
ENCODING 250
SWIDTH 666 0
DWIDTH 6 0
BBX 5 11 0 0
BITMAP
10
10
30
00
88
88
88
88
88
88
F8
ENDCHAR
STARTCHAR ucircumflex
ENCODING 251
SWIDTH 666 0
DWIDTH 6 0
BBX 5 10 0 0
BITMAP
30
50
00
88
88
88
88
88
88
F8
ENDCHAR
STARTCHAR udieresis
ENCODING 252
SWIDTH 666 0
DWIDTH 6 0
BBX 5 9 0 0
BITMAP
88
00
88
88
88
88
88
88
F8
ENDCHAR
STARTCHAR yacute
ENCODING 253
SWIDTH 666 0
DWIDTH 6 0
BBX 5 13 0 -2
BITMAP
10
10
30
00
88
88
88
88
88
88
F8
08
78
ENDCHAR
STARTCHAR thorn
ENCODING 254
SWIDTH 666 0
DWIDTH 6 0
BBX 5 11 0 -1
BITMAP
80
80
F8
88
88
88
88
88
F8
80
80
ENDCHAR
STARTCHAR ydieresis
ENCODING 255
SWIDTH 666 0
DWIDTH 6 0
BBX 5 11 0 -2
BITMAP
88
00
88
88
88
88
88
88
F8
08
78
ENDCHAR
STARTCHAR OE
ENCODING 338
SWIDTH 1222 0
DWIDTH 11 0
BBX 10 9 0 0
BITMAP
7FC0
8800
8800
8800
8F00
8800
8800
8800
FFC0
ENDCHAR
STARTCHAR oe
ENCODING 339
SWIDTH 1111 0
DWIDTH 10 0
BBX 9 7 0 0
BITMAP
FF80
8880
8880
8F80
8800
8880
FF80
ENDCHAR
STARTCHAR Ydieresis
ENCODING 376
SWIDTH 888 0
DWIDTH 8 0
BBX 7 11 0 0
BITMAP
82
00
82
82
82
44
28
10
10
10
10
ENDCHAR
STARTCHAR Ygrave
ENCODING 7922
SWIDTH 888 0
DWIDTH 8 0
BBX 7 13 0 0
BITMAP
10
10
18
00
82
82
82
44
28
10
10
10
10
ENDCHAR
STARTCHAR ygrave
ENCODING 7923
SWIDTH 666 0
DWIDTH 6 0
BBX 5 13 0 -2
BITMAP
20
20
30
00
88
88
88
88
88
88
F8
08
78
ENDCHAR
STARTCHAR uni220E
ENCODING 8718
SWIDTH 777 0
DWIDTH 7 0
BBX 6 9 0 0
BITMAP
FC
FC
FC
FC
FC
FC
FC
FC
FC
ENDCHAR
STARTCHAR .notdef
ENCODING -1
SWIDTH 111 0
DWIDTH 1 0
BBX 1 1 0 0
BITMAP
00
ENDCHAR
ENDFONT
